<svg xmlns="http://www.w3.org/2000/svg" width="65.522" height="92.94" viewBox="0 0 65.522 92.94"><g transform="translate(-576.12 1528.181)"><g transform="translate(576.12 -1528.181)"><path d="M174.361-1305.41c.153.329.92,2.047,1.709,3.817l1.441,3.219,5.917.023,5.918.015v26.445l3.672,8.225c2.024,4.515,3.748,8.37,3.833,8.562l.161.345V-1306H174.1Z" transform="translate(-174.1 1306)" fill="#fff"/><path d="M540.008-1256.61c0,25.517.015,46.359.031,46.32s1.763-6.906,3.886-15.253l3.856-15.177.038-27.211.038-27.211,6.837-.023c6.546-.015,6.837-.023,6.876-.154.031-.077.46-1.778.966-3.779s.943-3.695.966-3.771c.038-.123-.552-.13-11.728-.13H540Z" transform="translate(-511.953 1303.23)" fill="#fff"/><path d="M730-1097.184c0,13.092.015,23.793.031,23.777s1.74-3.595,3.833-7.949l3.8-7.918v-24.061l5.795-.015,5.787-.023,1.418-2.951c.782-1.625,1.61-3.342,1.832-3.817l.414-.859H730Z" transform="translate(-687.389 1135.181)" fill="#fff"/></g></g></svg>